<mxfile host="65bd71144e">
    <diagram id="kP90dbxbbrdn6vEHq_Y9" name="Page-1">
        <mxGraphModel dx="553" dy="1884" grid="1" gridSize="10" guides="1" tooltips="1" connect="1" arrows="1" fold="1" page="1" pageScale="1" pageWidth="850" pageHeight="1100" math="0" shadow="0">
            <root>
                <mxCell id="0"/>
                <mxCell id="1" parent="0"/>
                <mxCell id="7" style="edgeStyle=none;html=1;entryX=0.5;entryY=0;entryDx=0;entryDy=0;" edge="1" parent="1" source="2" target="5">
                    <mxGeometry relative="1" as="geometry"/>
                </mxCell>
                <mxCell id="2" value="Start" style="ellipse;whiteSpace=wrap;html=1;" vertex="1" parent="1">
                    <mxGeometry x="294.37" y="-20" width="120" height="80" as="geometry"/>
                </mxCell>
                <mxCell id="11" style="edgeStyle=none;html=1;exitX=0.5;exitY=1;exitDx=0;exitDy=0;entryX=0.5;entryY=0;entryDx=0;entryDy=0;fontSize=12;" edge="1" parent="1" source="5" target="10">
                    <mxGeometry relative="1" as="geometry"/>
                </mxCell>
                <mxCell id="5" value="Print&amp;nbsp;&lt;span style=&quot;font-family: Consolas, &amp;quot;Courier New&amp;quot;, monospace; font-size: 14px; color: rgb(119, 119, 119);&quot;&gt;&quot;&lt;/span&gt;&lt;span style=&quot;font-family: Consolas, &amp;quot;Courier New&amp;quot;, monospace; font-size: 14px; color: rgb(31, 110, 137);&quot;&gt;¡Hola! :3&lt;/span&gt;&lt;span style=&quot;font-family: Consolas, &amp;quot;Courier New&amp;quot;, monospace; font-size: 14px; color: rgb(119, 119, 119);&quot;&gt;&quot;&lt;/span&gt;" style="shape=parallelogram;perimeter=parallelogramPerimeter;whiteSpace=wrap;html=1;fixedSize=1;" vertex="1" parent="1">
                    <mxGeometry x="252.5" y="120" width="203.75" height="60" as="geometry"/>
                </mxCell>
                <mxCell id="14" style="edgeStyle=none;html=1;exitX=0.5;exitY=1;exitDx=0;exitDy=0;entryX=0.5;entryY=0;entryDx=0;entryDy=0;fontSize=12;" edge="1" parent="1" source="8" target="13">
                    <mxGeometry relative="1" as="geometry"/>
                </mxCell>
                <mxCell id="8" value="Define range 0-100" style="rounded=0;whiteSpace=wrap;html=1;" vertex="1" parent="1">
                    <mxGeometry x="294.37" y="310" width="120" height="60" as="geometry"/>
                </mxCell>
                <mxCell id="12" style="edgeStyle=none;html=1;exitX=0.5;exitY=1;exitDx=0;exitDy=0;fontSize=12;" edge="1" parent="1" source="10" target="8">
                    <mxGeometry relative="1" as="geometry"/>
                </mxCell>
                <mxCell id="10" value="&lt;font style=&quot;font-size: 12px;&quot;&gt;Print&amp;nbsp;&lt;span style=&quot;font-family: Consolas, &amp;quot;Courier New&amp;quot;, monospace; color: rgb(119, 119, 119);&quot;&gt;&quot;&lt;/span&gt;&lt;span style=&quot;font-family: Consolas, &amp;quot;Courier New&amp;quot;, monospace; color: rgb(31, 110, 137);&quot;&gt;Ingresa la nota (0-100):&lt;/span&gt;&lt;span style=&quot;font-family: Consolas, &amp;quot;Courier New&amp;quot;, monospace; color: rgb(119, 119, 119);&quot;&gt;&quot;&lt;/span&gt;&lt;/font&gt;" style="shape=parallelogram;perimeter=parallelogramPerimeter;whiteSpace=wrap;html=1;fixedSize=1;" vertex="1" parent="1">
                    <mxGeometry x="258.43" y="210" width="191.88" height="70" as="geometry"/>
                </mxCell>
                <mxCell id="19" style="edgeStyle=none;html=1;entryX=0.5;entryY=0;entryDx=0;entryDy=0;fontSize=12;" edge="1" parent="1" source="13" target="15">
                    <mxGeometry relative="1" as="geometry"/>
                </mxCell>
                <mxCell id="13" value="Read&amp;nbsp;&amp;nbsp;&lt;span style=&quot;color: rgb(51, 51, 51); font-family: Consolas, &amp;quot;Courier New&amp;quot;, monospace; font-size: 14px;&quot;&gt;grade&amp;nbsp;&lt;/span&gt;&lt;span style=&quot;background-color: initial;&quot;&gt;and parse&amp;nbsp;&lt;/span&gt;" style="shape=parallelogram;perimeter=parallelogramPerimeter;whiteSpace=wrap;html=1;fixedSize=1;fontSize=12;" vertex="1" parent="1">
                    <mxGeometry x="270" y="420" width="170" height="70" as="geometry"/>
                </mxCell>
                <mxCell id="16" style="edgeStyle=none;html=1;fontSize=12;entryX=0.5;entryY=0;entryDx=0;entryDy=0;" edge="1" parent="1" source="15" target="23">
                    <mxGeometry relative="1" as="geometry">
                        <mxPoint x="530" y="585" as="targetPoint"/>
                        <Array as="points">
                            <mxPoint x="470" y="585"/>
                            <mxPoint x="565" y="585"/>
                        </Array>
                    </mxGeometry>
                </mxCell>
                <mxCell id="18" value="Yes" style="edgeLabel;html=1;align=center;verticalAlign=middle;resizable=0;points=[];fontSize=12;" vertex="1" connectable="0" parent="16">
                    <mxGeometry x="-0.2889" y="-1" relative="1" as="geometry">
                        <mxPoint x="-15" y="-1" as="offset"/>
                    </mxGeometry>
                </mxCell>
                <mxCell id="17" style="edgeStyle=none;html=1;exitX=0;exitY=0.5;exitDx=0;exitDy=0;fontSize=12;entryX=0.5;entryY=0;entryDx=0;entryDy=0;" edge="1" parent="1" source="15" target="22">
                    <mxGeometry relative="1" as="geometry">
                        <mxPoint x="210" y="585" as="targetPoint"/>
                        <Array as="points">
                            <mxPoint x="211" y="585"/>
                        </Array>
                    </mxGeometry>
                </mxCell>
                <mxCell id="21" value="No" style="edgeLabel;html=1;align=center;verticalAlign=middle;resizable=0;points=[];fontSize=12;" vertex="1" connectable="0" parent="17">
                    <mxGeometry x="-0.3576" y="2" relative="1" as="geometry">
                        <mxPoint x="57" y="-28" as="offset"/>
                    </mxGeometry>
                </mxCell>
                <mxCell id="15" value="Grade in range 0 - 100?" style="rhombus;whiteSpace=wrap;html=1;fontSize=12;" vertex="1" parent="1">
                    <mxGeometry x="314.37" y="540" width="80" height="90" as="geometry"/>
                </mxCell>
                <mxCell id="30" style="edgeStyle=none;html=1;exitX=0.5;exitY=1;exitDx=0;exitDy=0;entryX=0.5;entryY=0;entryDx=0;entryDy=0;fontSize=14;" edge="1" parent="1" source="22" target="28">
                    <mxGeometry relative="1" as="geometry">
                        <Array as="points">
                            <mxPoint x="210" y="1040"/>
                            <mxPoint x="354" y="1040"/>
                        </Array>
                    </mxGeometry>
                </mxCell>
                <mxCell id="22" value="Print&lt;br&gt;&lt;div style=&quot;font-size: 14px;&quot;&gt;&lt;span style=&quot;background-color: initial;&quot;&gt;&amp;nbsp;&lt;/span&gt;&lt;span style=&quot;background-color: initial; color: rgb(31, 110, 137); font-family: Consolas, &amp;quot;Courier New&amp;quot;, monospace;&quot;&gt;Error: La nota ingresada no es válida.&lt;/span&gt;&lt;/div&gt;" style="shape=parallelogram;perimeter=parallelogramPerimeter;whiteSpace=wrap;html=1;fixedSize=1;fontSize=12;" vertex="1" parent="1">
                    <mxGeometry x="80" y="860" width="258.13" height="90" as="geometry"/>
                </mxCell>
                <mxCell id="25" style="edgeStyle=none;html=1;exitX=0.5;exitY=1;exitDx=0;exitDy=0;entryX=0.5;entryY=0;entryDx=0;entryDy=0;fontSize=12;" edge="1" parent="1" source="23" target="24">
                    <mxGeometry relative="1" as="geometry"/>
                </mxCell>
                <mxCell id="23" value="Asign variables&amp;nbsp;&lt;br&gt;&lt;div style=&quot;color: rgb(51, 51, 51); font-family: Consolas, &amp;quot;Courier New&amp;quot;, monospace; line-height: 19px; font-size: 10px;&quot;&gt;&lt;div style=&quot;&quot;&gt;&lt;span style=&quot;color: rgb(225, 112, 146);&quot;&gt;string&lt;/span&gt; gradeUS &lt;span style=&quot;color: rgb(119, 119, 119);&quot;&gt;=&lt;/span&gt; &lt;span style=&quot;color: rgb(119, 119, 119);&quot;&gt;&quot;&quot;&lt;/span&gt;&lt;span style=&quot;color: rgb(119, 119, 119);&quot;&gt;;&lt;/span&gt;&lt;/div&gt;&lt;div style=&quot;&quot;&gt;&amp;nbsp;&lt;span style=&quot;color: rgb(225, 112, 146);&quot;&gt;string&lt;/span&gt; gradeES &lt;span style=&quot;color: rgb(119, 119, 119);&quot;&gt;=&lt;/span&gt; &lt;span style=&quot;color: rgb(119, 119, 119);&quot;&gt;&quot;&quot;&lt;/span&gt;&lt;span style=&quot;color: rgb(119, 119, 119);&quot;&gt;;&lt;/span&gt;&lt;/div&gt;&lt;/div&gt;" style="rounded=0;whiteSpace=wrap;html=1;labelBackgroundColor=none;fontSize=12;" vertex="1" parent="1">
                    <mxGeometry x="450.31" y="630" width="230" height="70" as="geometry"/>
                </mxCell>
                <mxCell id="27" style="edgeStyle=none;html=1;exitX=0.5;exitY=1;exitDx=0;exitDy=0;entryX=0.5;entryY=0;entryDx=0;entryDy=0;fontSize=12;" edge="1" parent="1" source="24" target="26">
                    <mxGeometry relative="1" as="geometry"/>
                </mxCell>
                <mxCell id="24" value="&lt;font style=&quot;font-size: 12px;&quot;&gt;Determine grade&amp;nbsp;&lt;/font&gt;" style="rounded=0;whiteSpace=wrap;html=1;labelBackgroundColor=none;fontSize=10;" vertex="1" parent="1">
                    <mxGeometry x="505.31" y="740" width="120" height="60" as="geometry"/>
                </mxCell>
                <mxCell id="31" style="edgeStyle=none;html=1;exitX=0.5;exitY=1;exitDx=0;exitDy=0;fontSize=14;entryX=0.5;entryY=0;entryDx=0;entryDy=0;" edge="1" parent="1" source="26" target="28">
                    <mxGeometry relative="1" as="geometry">
                        <mxPoint x="350" y="1110" as="targetPoint"/>
                        <Array as="points">
                            <mxPoint x="565" y="1040"/>
                            <mxPoint x="354" y="1040"/>
                        </Array>
                    </mxGeometry>
                </mxCell>
                <mxCell id="26" value="&lt;font style=&quot;font-size: 12px;&quot;&gt;Print&lt;br&gt;&lt;/font&gt;&lt;div style=&quot;color: rgb(51, 51, 51); font-family: Consolas, &amp;quot;Courier New&amp;quot;, monospace; line-height: 19px;&quot;&gt;&lt;div style=&quot;&quot;&gt;&lt;font style=&quot;font-size: 12px;&quot;&gt;&lt;span style=&quot;color: rgb(148, 102, 170);&quot;&gt;Console&lt;/span&gt;&lt;span style=&quot;color: rgb(119, 119, 119);&quot;&gt;.&lt;/span&gt;&lt;span style=&quot;color: rgb(157, 60, 94); font-weight: bold;&quot;&gt;WriteLine&lt;/span&gt;&lt;span style=&quot;color: rgb(119, 119, 119);&quot;&gt;(&lt;/span&gt;&lt;span style=&quot;color: rgb(119, 119, 119);&quot;&gt;&quot;&lt;/span&gt;&lt;span style=&quot;color: rgb(31, 110, 137);&quot;&gt;Calificación (EEUU): &lt;/span&gt;&lt;span style=&quot;color: rgb(119, 119, 119);&quot;&gt;&quot;&lt;/span&gt; &lt;span style=&quot;color: rgb(119, 119, 119);&quot;&gt;+&lt;/span&gt; &lt;span style=&quot;color: rgb(148, 102, 170);&quot;&gt;gradeUS&lt;/span&gt;&lt;span style=&quot;color: rgb(119, 119, 119);&quot;&gt;);&lt;/span&gt;&lt;/font&gt;&lt;/div&gt;&lt;div style=&quot;&quot;&gt;&lt;font style=&quot;font-size: 12px;&quot;&gt;&lt;span style=&quot;color: rgb(148, 102, 170);&quot;&gt;Console&lt;/span&gt;&lt;span style=&quot;color: rgb(119, 119, 119);&quot;&gt;.&lt;/span&gt;&lt;span style=&quot;color: rgb(157, 60, 94); font-weight: bold;&quot;&gt;WriteLine&lt;/span&gt;&lt;span style=&quot;color: rgb(119, 119, 119);&quot;&gt;(&lt;/span&gt;&lt;span style=&quot;color: rgb(119, 119, 119);&quot;&gt;&quot;&lt;/span&gt;&lt;span style=&quot;color: rgb(31, 110, 137);&quot;&gt;Calificación (Español): &lt;/span&gt;&lt;span style=&quot;color: rgb(119, 119, 119);&quot;&gt;&quot;&lt;/span&gt; &lt;span style=&quot;color: rgb(119, 119, 119);&quot;&gt;+&lt;/span&gt; &lt;span style=&quot;color: rgb(148, 102, 170);&quot;&gt;gradeES&lt;/span&gt;&lt;span style=&quot;color: rgb(119, 119, 119);&quot;&gt;);&lt;/span&gt;&lt;/font&gt;&lt;/div&gt;&lt;/div&gt;" style="shape=parallelogram;perimeter=parallelogramPerimeter;whiteSpace=wrap;html=1;fixedSize=1;labelBackgroundColor=none;fontSize=12;" vertex="1" parent="1">
                    <mxGeometry x="446.89" y="830" width="236.83" height="120" as="geometry"/>
                </mxCell>
                <mxCell id="28" value="End" style="ellipse;whiteSpace=wrap;html=1;labelBackgroundColor=none;fontSize=14;" vertex="1" parent="1">
                    <mxGeometry x="295.62" y="1120" width="117.5" height="80" as="geometry"/>
                </mxCell>
            </root>
        </mxGraphModel>
    </diagram>
</mxfile>